<svg t="1597632252233" class="icon" viewBox="0 0 1024 1024" version="1.1" xmlns="http://www.w3.org/2000/svg" p-id="7810" width="16" height="16"><path d="M236.1 493.172l275.9-275.9 275.9 275.9C800.452 505.724 816.896 512 833.339 512s32.887-6.276 45.439-18.828c25.105-25.105 25.105-65.774 0-90.879L557.439 80.953c-25.105-25.105-65.774-25.105-90.879 0l-321.339 321.34c-25.105 25.105-25.105 65.774 0 90.879 25.105 25.104 65.774 25.104 90.879 0z" fill="#bfbfbf" p-id="7811"></path><path d="M557.439 530.828c-25.105-25.105-65.774-25.105-90.879 0l-321.339 321.34c-25.105 25.105-25.105 65.774 0 90.879s65.774 25.105 90.879 0l275.9-275.9 275.9 275.9c12.552 12.552 28.996 18.828 45.439 18.828s32.887-6.276 45.439-18.828c25.105-25.105 25.105-65.774 0-90.879l-321.339-321.34z" fill="#bfbfbf" p-id="7812"></path></svg>