<svg t="1597730705276" class="icon" viewBox="0 0 1024 1024" version="1.1" xmlns="http://www.w3.org/2000/svg" p-id="1747" width="16" height="16"><path d="M249.78773334 458.47893334c13.65333333 0 27.30666667 5.46133333 38.22933333 15.83786666l443.46026667 439.0912c21.2992 21.2992 21.29919999 55.15946667 0.54613333 76.45866667s-55.15946667 21.29919999-76.45866666 0.54613332l-443.46026667-439.09119999a54.23104 54.23104 0 0 1-0.54613332-76.45866668c9.8304-11.46880001 24.02986667-16.384 38.22933332-16.38399998z" fill="#bfbfbf" p-id="1748"></path><path d="M688.33280001 15.01866666c13.65333333 0 27.30666667 5.46133333 38.22933333 15.83786666 21.2992 21.2992 21.29919999 55.15946667 0.54613333 76.45866668l-439.0912 443.46026667a54.23104 54.23104 0 0 1-76.45866666 0.54613333 54.23104 54.23104 0 0 1-0.54613334-76.45866665L650.10346667 31.40266667c10.37653333-10.92266667 24.576-16.384 38.22933334-16.38400001z" fill="#bfbfbf" p-id="1749"></path></svg>