<svg t="1597892416979" class="icon" viewBox="0 0 1024 1024" version="1.1" xmlns="http://www.w3.org/2000/svg" p-id="2567" width="64" height="64"><path d="M540.444 272.782a129.138 129.138 0 1 1 129.138-129.138 129.138 129.138 0 0 1-129.138 129.138z" p-id="2568"></path><path d="M265.387 375.182a118.044 118.044 0 1 1 117.76-117.76 117.76 117.76 0 0 1-117.76 117.76z" p-id="2569"></path><path d="M148.764 641.991A104.107 104.107 0 1 1 252.587 538.17a104.107 104.107 0 0 1-103.823 103.82z" p-id="2570"></path><path d="M265.387 906.24a88.178 88.178 0 1 1 88.177-88.178 88.178 88.178 0 0 1-88.177 88.178z" p-id="2571"></path><path d="M540.444 1007.218a77.084 77.084 0 1 1 76.8-77.085 77.084 77.084 0 0 1-76.8 77.085z" p-id="2572"></path><path d="M818.916 877.227a62.293 62.293 0 1 1 62.862-62.294 62.293 62.293 0 0 1-62.294 62.294z" p-id="2573"></path><path d="M933.262 589.653a51.2 51.2 0 1 1 50.916-51.2 51.2 51.2 0 0 1-50.916 51.2z" p-id="2574"></path><path d="M779.378 261.12a39.822 39.822 0 1 0 39.538-39.538 39.822 39.822 0 0 0-39.538 39.538z" p-id="2575"></path></svg>